<svg xmlns="http://www.w3.org/2000/svg" viewBox="0 0 60 30">
  <rect width="60" height="30" fill="#B22234"/>
  <rect width="60" height="2.3" y="2.3" fill="#FFFFFF"/>
  <rect width="60" height="2.3" y="6.9" fill="#FFFFFF"/>
  <rect width="60" height="2.3" y="11.5" fill="#FFFFFF"/>
  <rect width="60" height="2.3" y="16.1" fill="#FFFFFF"/>
  <rect width="60" height="2.3" y="20.7" fill="#FFFFFF"/>
  <rect width="60" height="2.3" y="25.3" fill="#FFFFFF"/>
  <rect width="60" height="2.3" y="29.9" fill="#FFFFFF"/>
  <rect width="24" height="15.4" fill="#3C3B6E"/>
  <!-- Simplified stars representation -->
  <g fill="#FFFFFF">
    <circle cx="3" cy="2" r="0.8"/>
    <circle cx="7" cy="2" r="0.8"/>
    <circle cx="11" cy="2" r="0.8"/>
    <circle cx="15" cy="2" r="0.8"/>
    <circle cx="19" cy="2" r="0.8"/>
    <circle cx="5" cy="4" r="0.8"/>
    <circle cx="9" cy="4" r="0.8"/>
    <circle cx="13" cy="4" r="0.8"/>
    <circle cx="17" cy="4" r="0.8"/>
    <circle cx="21" cy="4" r="0.8"/>
    <circle cx="3" cy="6" r="0.8"/>
    <circle cx="7" cy="6" r="0.8"/>
    <circle cx="11" cy="6" r="0.8"/>
    <circle cx="15" cy="6" r="0.8"/>
    <circle cx="19" cy="6" r="0.8"/>
    <circle cx="5" cy="8" r="0.8"/>
    <circle cx="9" cy="8" r="0.8"/>
    <circle cx="13" cy="8" r="0.8"/>
    <circle cx="17" cy="8" r="0.8"/>
    <circle cx="21" cy="8" r="0.8"/>
    <circle cx="3" cy="10" r="0.8"/>
    <circle cx="7" cy="10" r="0.8"/>
    <circle cx="11" cy="10" r="0.8"/>
    <circle cx="15" cy="10" r="0.8"/>
    <circle cx="19" cy="10" r="0.8"/>
    <circle cx="5" cy="12" r="0.8"/>
    <circle cx="9" cy="12" r="0.8"/>
    <circle cx="13" cy="12" r="0.8"/>
    <circle cx="17" cy="12" r="0.8"/>
    <circle cx="21" cy="12" r="0.8"/>
  </g>
</svg>
